<?xml version="1.0" encoding="UTF-8" standalone="no"?>
<!-- Created with Inkscape (http://www.inkscape.org/) -->

<svg
   xmlns:dc="http://purl.org/dc/elements/1.1/"
   xmlns:cc="http://creativecommons.org/ns#"
   xmlns:rdf="http://www.w3.org/1999/02/22-rdf-syntax-ns#"
   xmlns:svg="http://www.w3.org/2000/svg"
   xmlns="http://www.w3.org/2000/svg"
   xmlns:sodipodi="http://sodipodi.sourceforge.net/DTD/sodipodi-0.dtd"
   xmlns:inkscape="http://www.inkscape.org/namespaces/inkscape"
   width="210mm"
   height="297mm"
   viewBox="0 0 210 297"
   version="1.1"
   id="svg8"
   inkscape:version="0.92.2 (5c3e80d, 2017-08-06)"
   sodipodi:docname="maze.svg">
  <defs
     id="defs2" />
  <sodipodi:namedview
     id="base"
     pagecolor="#ffffff"
     bordercolor="#666666"
     borderopacity="1.0"
     inkscape:pageopacity="0.0"
     inkscape:pageshadow="2"
     inkscape:zoom="0.35"
     inkscape:cx="340.93653"
     inkscape:cy="422.7412"
     inkscape:document-units="mm"
     inkscape:current-layer="layer1"
     showgrid="false"
     inkscape:window-width="1600"
     inkscape:window-height="1137"
     inkscape:window-x="-8"
     inkscape:window-y="146"
     inkscape:window-maximized="1" />
  <metadata
     id="metadata5">
    <rdf:RDF>
      <cc:Work
         rdf:about="">
        <dc:format>image/svg+xml</dc:format>
        <dc:type
           rdf:resource="http://purl.org/dc/dcmitype/StillImage" />
        <dc:title></dc:title>
      </cc:Work>
    </rdf:RDF>
  </metadata>
  <g
     inkscape:label="Layer 1"
     inkscape:groupmode="layer"
     id="layer1">
    <rect
       style="fill:#8fff8f;fill-opacity:1;stroke-width:0.26458332"
       id="rect5050"
       width="360.58929"
       height="459.61902"
       x="-46.869045"
       y="-69.636909" />
    <rect
       style="fill:#00aa00;fill-opacity:1;stroke-width:0.31305918"
       id="rect4620-0-3-5-3"
       width="98.994949"
       height="40"
       x="1.6731004"
       y="21.108124"
       transform="matrix(0.70710678,-0.70710678,0,1,0,0)" />
    <rect
       style="fill:#00ee00;fill-opacity:1;stroke-width:0.41996938"
       id="rect4620-8-8-70"
       width="41.199398"
       height="180.93744"
       x="-20.091278"
       y="-96.190552"
       transform="matrix(1,0,-0.70710678,0.70710678,0,0)" />
    <rect
       style="fill:#00ee00;fill-opacity:1;stroke-width:0.31464437"
       id="rect4669-9-0"
       width="100"
       height="56.568542"
       x="21.108124"
       y="28.178345"
       transform="matrix(1,0,-0.70710678,0.70710678,0,0)" />
    <rect
       style="fill:#006400;fill-opacity:1;stroke-width:0.43921757"
       id="rect4746-7"
       width="141.41165"
       height="50.24667"
       x="-78.958008"
       y="59.925076" />
    <rect
       style="fill:#00aa00;fill-opacity:1;stroke-width:0.31305918"
       id="rect4620-0-3"
       width="98.994949"
       height="40"
       x="49.398521"
       y="262.38242"
       transform="matrix(0.70710678,-0.70710678,0,1,0,0)" />
    <rect
       style="fill:#008500;fill-opacity:1;stroke-width:0.40501451"
       id="rect4746-1"
       width="120.24499"
       height="50.24667"
       x="66.745544"
       y="195.6369" />
    <rect
       style="fill:#00aa00;fill-opacity:1;stroke-width:0.31305918"
       id="rect4620-0-3-5"
       width="98.994949"
       height="40"
       x="254.76199"
       y="423.7229"
       transform="matrix(0.70710678,-0.70710678,0,1,0,0)" />
    <rect
       style="fill:#00aa00;fill-opacity:1;stroke-width:0.31305918"
       id="rect4620-0-3-6-3"
       width="98.994949"
       height="40"
       x="159.34273"
       y="160.65388"
       transform="matrix(0.70710678,-0.70710678,0,1,0,0)" />
    <rect
       style="fill:#006400;fill-opacity:1;stroke-width:0.43921757"
       id="rect4746-12-4"
       width="141.41165"
       height="50.24667"
       x="131.85426"
       y="28.79962" />
    <rect
       style="fill:#00aa00;fill-opacity:1;stroke-width:0.31305918"
       id="rect4620-0-3-6-1-1"
       width="98.994949"
       height="40"
       x="138.1958"
       y="232.56236"
       transform="matrix(0.70710678,-0.70710678,0,1,0,0)" />
    <rect
       style="fill:#006400;fill-opacity:1;stroke-width:0.43921757"
       id="rect4746-12"
       width="141.41165"
       height="50.24667"
       x="144.44133"
       y="116.74171" />
    <rect
       style="fill:#00aa00;fill-opacity:1;stroke-width:0.31305918"
       id="rect4620-0-3-6-1"
       width="98.994949"
       height="40"
       x="61.096123"
       y="161.18304"
       transform="matrix(0.70710678,-0.70710678,0,1,0,0)" />
    <rect
       style="fill:#006400;fill-opacity:1;stroke-width:0.20956263"
       id="rect4746-8-5"
       width="40.019539"
       height="40.419292"
       x="57.69965"
       y="134.84317" />
    <rect
       style="fill:#00aa00;fill-opacity:1;stroke-width:0.31305918"
       id="rect4620-0-3-6"
       width="98.994949"
       height="40"
       x="-37.150471"
       y="161.18304"
       transform="matrix(0.70710678,-0.70710678,0,1,0,0)" />
    <rect
       style="fill:#008500;fill-opacity:1;stroke-width:0.44155928"
       id="rect4746-1-5"
       width="142.92355"
       height="50.24667"
       x="-107.99352"
       y="227.45239" />
    <rect
       style="fill:#00f000;fill-opacity:1;stroke-width:0.31464437"
       id="rect4620"
       width="40"
       height="100"
       x="302.00052"
       y="320.28403"
       transform="matrix(1,0,-0.70710678,0.70710678,0,0)" />
    <rect
       style="fill:#00ee00;fill-opacity:1;stroke-width:0.31464437"
       id="rect4620-8"
       width="41.199398"
       height="101.56242"
       x="221.18304"
       y="220.10384"
       transform="matrix(1,0,-0.70710678,0.70710678,0,0)" />
    <rect
       style="fill:#00ee00;fill-opacity:1;stroke-width:0.34639388"
       id="rect4669"
       width="121.1994"
       height="56.568542"
       x="261.85327"
       y="220.10384"
       transform="matrix(1,0,-0.70710678,0.70710678,0,0)" />
    <rect
       style="fill:#00ee00;fill-opacity:1;stroke-width:0.41996938"
       id="rect4620-8-8"
       width="41.199398"
       height="180.93744"
       x="382.5235"
       y="220.10384"
       transform="matrix(1,0,-0.70710678,0.70710678,0,0)" />
    <rect
       style="fill:#00ee00;fill-opacity:1;stroke-width:0.31464437"
       id="rect4669-9"
       width="100"
       height="56.568542"
       x="423.7229"
       y="344.47272"
       transform="matrix(1,0,-0.70710678,0.70710678,0,0)" />
    <rect
       style="fill:#00ee00;fill-opacity:1;stroke-width:0.31464437"
       id="rect4669-9-4"
       width="100"
       height="56.568542"
       x="121.18305"
       y="265.09772"
       transform="matrix(1,0,-0.70710678,0.70710678,0,0)" />
    <rect
       style="fill:#00ee00;fill-opacity:1;stroke-width:0.31464437"
       id="rect4620-6"
       width="40"
       height="100"
       x="121.18305"
       y="165.09772"
       transform="matrix(1,0,-0.70710678,0.70710678,0,0)" />
    <rect
       style="fill:#00ee00;fill-opacity:1;stroke-width:0.31464437"
       id="rect4669-9-1"
       width="100"
       height="56.568542"
       x="160.65388"
       y="-15.839727"
       transform="matrix(1,0,-0.70710678,0.70710678,0,0)" />
    <rect
       style="fill:#006400;fill-opacity:1;stroke-width:0.43921757"
       id="rect4746"
       width="141.41165"
       height="50.24667"
       x="100.00285"
       y="283.57898" />
    <rect
       style="fill:#00ee00;fill-opacity:1;stroke-width:0.41996938"
       id="rect4620-8-8-7-0"
       width="41.199398"
       height="180.93744"
       x="260.65387"
       y="-15.839727"
       transform="matrix(1,0,-0.70710678,0.70710678,0,0)" />
    <rect
       style="fill:#00ee00;fill-opacity:1;stroke-width:0.41996938"
       id="rect4620-8-8-7-0-7"
       width="41.199398"
       height="180.93744"
       x="119.98364"
       y="-15.839727"
       transform="matrix(1,0,-0.70710678,0.70710678,0,0)" />
    <rect
       style="fill:#00ee00;fill-opacity:1;stroke-width:0.31464437"
       id="rect4620-86"
       width="40"
       height="100"
       x="192.54282"
       y="90.697037"
       transform="matrix(1,0,-0.70710678,0.70710678,0,0)" />
    <rect
       style="fill:#00ee00;fill-opacity:1;stroke-width:0.34639391"
       id="rect4669-7"
       width="121.1994"
       height="56.568542"
       x="261.18304"
       y="108.52916"
       transform="matrix(1,0,-0.70710678,0.70710678,0,0)" />
    <rect
       style="fill:#00aa00;fill-opacity:1;stroke-width:0.31305918"
       id="rect4620-0"
       width="98.994949"
       height="40"
       x="63.377747"
       y="342.00052"
       transform="matrix(0.70710678,-0.70710678,0,1,0,0)" />
    <rect
       style="fill:#006400;fill-opacity:1;stroke-width:0.21565919"
       id="rect4746-8"
       width="42.381889"
       height="40.419289"
       x="2.4329448"
       y="297.1857" />
  </g>
</svg>
