<?xml version="1.0" encoding="UTF-8" standalone="no"?>
<!-- Created with Inkscape (http://www.inkscape.org/) -->

<svg
   xmlns:dc="http://purl.org/dc/elements/1.1/"
   xmlns:cc="http://creativecommons.org/ns#"
   xmlns:rdf="http://www.w3.org/1999/02/22-rdf-syntax-ns#"
   xmlns:svg="http://www.w3.org/2000/svg"
   xmlns="http://www.w3.org/2000/svg"
   xmlns:sodipodi="http://sodipodi.sourceforge.net/DTD/sodipodi-0.dtd"
   xmlns:inkscape="http://www.inkscape.org/namespaces/inkscape"
   width="210mm"
   height="297mm"
   viewBox="0 0 210 297"
   version="1.1"
   id="svg8"
   inkscape:version="0.92.2 (5c3e80d, 2017-08-06)"
   sodipodi:docname="maze_with_help.svg">
  <defs
     id="defs2" />
  <sodipodi:namedview
     id="base"
     pagecolor="#ffffff"
     bordercolor="#666666"
     borderopacity="1.0"
     inkscape:pageopacity="0.0"
     inkscape:pageshadow="2"
     inkscape:zoom="0.35"
     inkscape:cx="-54.787569"
     inkscape:cy="-17.893013"
     inkscape:document-units="mm"
     inkscape:current-layer="layer1"
     showgrid="false"
     inkscape:window-width="1600"
     inkscape:window-height="1137"
     inkscape:window-x="-8"
     inkscape:window-y="146"
     inkscape:window-maximized="1" />
  <metadata
     id="metadata5">
    <rdf:RDF>
      <cc:Work
         rdf:about="">
        <dc:format>image/svg+xml</dc:format>
        <dc:type
           rdf:resource="http://purl.org/dc/dcmitype/StillImage" />
        <dc:title></dc:title>
      </cc:Work>
    </rdf:RDF>
  </metadata>
  <g
     inkscape:label="Layer 1"
     inkscape:groupmode="layer"
     id="layer1">
    <rect
       style="fill:#8fff8f;fill-opacity:1;stroke-width:0.26458332"
       id="rect5050"
       width="360.58929"
       height="459.61902"
       x="-46.869045"
       y="-69.636909" />
    <rect
       style="fill:#00aa00;fill-opacity:1;stroke-width:0.31305918"
       id="rect4620-0-3-5-3"
       width="98.994949"
       height="40"
       x="1.6731004"
       y="21.108124"
       transform="matrix(0.70710678,-0.70710678,0,1,0,0)" />
    <rect
       style="fill:#00ee00;fill-opacity:1;stroke-width:0.41996938"
       id="rect4620-8-8-70"
       width="41.199398"
       height="180.93744"
       x="-20.091278"
       y="-96.190552"
       transform="matrix(1,0,-0.70710678,0.70710678,0,0)" />
    <rect
       style="fill:#00ee00;fill-opacity:1;stroke-width:0.31464437"
       id="rect4669-9-0"
       width="100"
       height="56.568542"
       x="21.108124"
       y="28.178345"
       transform="matrix(1,0,-0.70710678,0.70710678,0,0)" />
    <rect
       style="fill:#006400;fill-opacity:1;stroke-width:0.43921757"
       id="rect4746-7"
       width="141.41165"
       height="50.24667"
       x="-78.958008"
       y="59.925076" />
    <rect
       style="fill:#00aa00;fill-opacity:1;stroke-width:0.31305918"
       id="rect4620-0-3"
       width="98.994949"
       height="40"
       x="49.398521"
       y="262.38242"
       transform="matrix(0.70710678,-0.70710678,0,1,0,0)" />
    <rect
       style="fill:#008500;fill-opacity:1;stroke-width:0.40501451"
       id="rect4746-1"
       width="120.24499"
       height="50.24667"
       x="66.745544"
       y="195.6369" />
    <rect
       style="fill:#00aa00;fill-opacity:1;stroke-width:0.31305918"
       id="rect4620-0-3-5"
       width="98.994949"
       height="40"
       x="254.76199"
       y="423.7229"
       transform="matrix(0.70710678,-0.70710678,0,1,0,0)" />
    <rect
       style="fill:#00aa00;fill-opacity:1;stroke-width:0.31305918"
       id="rect4620-0-3-6-3"
       width="98.994949"
       height="40"
       x="159.34273"
       y="160.65388"
       transform="matrix(0.70710678,-0.70710678,0,1,0,0)" />
    <rect
       style="fill:#006400;fill-opacity:1;stroke-width:0.43921757"
       id="rect4746-12-4"
       width="141.41165"
       height="50.24667"
       x="131.85426"
       y="28.79962" />
    <rect
       style="fill:#00aa00;fill-opacity:1;stroke-width:0.31305918"
       id="rect4620-0-3-6-1-1"
       width="98.994949"
       height="40"
       x="138.1958"
       y="232.56236"
       transform="matrix(0.70710678,-0.70710678,0,1,0,0)" />
    <rect
       style="fill:#006400;fill-opacity:1;stroke-width:0.43921757"
       id="rect4746-12"
       width="141.41165"
       height="50.24667"
       x="144.44133"
       y="116.74171" />
    <rect
       style="fill:#00aa00;fill-opacity:1;stroke-width:0.31305918"
       id="rect4620-0-3-6-1"
       width="98.994949"
       height="40"
       x="61.096123"
       y="161.18304"
       transform="matrix(0.70710678,-0.70710678,0,1,0,0)" />
    <rect
       style="fill:#006400;fill-opacity:1;stroke-width:0.20956263"
       id="rect4746-8-5"
       width="40.019539"
       height="40.419292"
       x="57.69965"
       y="134.84317" />
    <rect
       style="fill:#00aa00;fill-opacity:1;stroke-width:0.31305918"
       id="rect4620-0-3-6"
       width="98.994949"
       height="40"
       x="-37.150471"
       y="161.18304"
       transform="matrix(0.70710678,-0.70710678,0,1,0,0)" />
    <rect
       style="fill:#008500;fill-opacity:1;stroke-width:0.44155928"
       id="rect4746-1-5"
       width="142.92355"
       height="50.24667"
       x="-107.99352"
       y="227.45239" />
    <rect
       style="fill:#00f000;fill-opacity:1;stroke-width:0.31464437"
       id="rect4620"
       width="40"
       height="100"
       x="302.00052"
       y="320.28403"
       transform="matrix(1,0,-0.70710678,0.70710678,0,0)" />
    <rect
       style="fill:#00ee00;fill-opacity:1;stroke-width:0.31464437"
       id="rect4620-8"
       width="41.199398"
       height="101.56242"
       x="221.18304"
       y="220.10384"
       transform="matrix(1,0,-0.70710678,0.70710678,0,0)" />
    <rect
       style="fill:#00ee00;fill-opacity:1;stroke-width:0.34639388"
       id="rect4669"
       width="121.1994"
       height="56.568542"
       x="261.85327"
       y="220.10384"
       transform="matrix(1,0,-0.70710678,0.70710678,0,0)" />
    <rect
       style="fill:#00ee00;fill-opacity:1;stroke-width:0.41996938"
       id="rect4620-8-8"
       width="41.199398"
       height="180.93744"
       x="382.5235"
       y="220.10384"
       transform="matrix(1,0,-0.70710678,0.70710678,0,0)" />
    <rect
       style="fill:#00ee00;fill-opacity:1;stroke-width:0.31464437"
       id="rect4669-9"
       width="100"
       height="56.568542"
       x="423.7229"
       y="344.47272"
       transform="matrix(1,0,-0.70710678,0.70710678,0,0)" />
    <rect
       style="fill:#00ee00;fill-opacity:1;stroke-width:0.31464437"
       id="rect4669-9-4"
       width="100"
       height="56.568542"
       x="121.18305"
       y="265.09772"
       transform="matrix(1,0,-0.70710678,0.70710678,0,0)" />
    <rect
       style="fill:#00ee00;fill-opacity:1;stroke-width:0.31464437"
       id="rect4620-6"
       width="40"
       height="100"
       x="121.18305"
       y="165.09772"
       transform="matrix(1,0,-0.70710678,0.70710678,0,0)" />
    <rect
       style="fill:#00ee00;fill-opacity:1;stroke-width:0.31464437"
       id="rect4669-9-1"
       width="100"
       height="56.568542"
       x="160.65388"
       y="-15.839727"
       transform="matrix(1,0,-0.70710678,0.70710678,0,0)" />
    <rect
       style="fill:#006400;fill-opacity:1;stroke-width:0.43921757"
       id="rect4746"
       width="141.41165"
       height="50.24667"
       x="100.00285"
       y="283.57898" />
    <rect
       style="fill:#00ee00;fill-opacity:1;stroke-width:0.41996938"
       id="rect4620-8-8-7-0"
       width="41.199398"
       height="180.93744"
       x="260.65387"
       y="-15.839727"
       transform="matrix(1,0,-0.70710678,0.70710678,0,0)" />
    <rect
       style="fill:#00ee00;fill-opacity:1;stroke-width:0.41996938"
       id="rect4620-8-8-7-0-7"
       width="41.199398"
       height="180.93744"
       x="119.98364"
       y="-15.839727"
       transform="matrix(1,0,-0.70710678,0.70710678,0,0)" />
    <rect
       style="fill:#00ee00;fill-opacity:1;stroke-width:0.31464437"
       id="rect4620-86"
       width="40"
       height="100"
       x="192.54282"
       y="90.697037"
       transform="matrix(1,0,-0.70710678,0.70710678,0,0)" />
    <rect
       style="fill:#00ee00;fill-opacity:1;stroke-width:0.34639391"
       id="rect4669-7"
       width="121.1994"
       height="56.568542"
       x="261.18304"
       y="108.52916"
       transform="matrix(1,0,-0.70710678,0.70710678,0,0)" />
    <rect
       style="fill:#00aa00;fill-opacity:1;stroke-width:0.31305918"
       id="rect4620-0"
       width="98.994949"
       height="40"
       x="63.377747"
       y="342.00052"
       transform="matrix(0.70710678,-0.70710678,0,1,0,0)" />
    <rect
       style="fill:#006400;fill-opacity:1;stroke-width:0.21565919"
       id="rect4746-8"
       width="42.381889"
       height="40.419289"
       x="2.4329448"
       y="297.1857" />
    <rect
       style="fill:#8fff8f;fill-opacity:1;stroke-width:0.26458332"
       id="rect5052"
       width="66.523811"
       height="54.42857"
       x="-244.17261"
       y="-84" />
    <rect
       style="fill:#ffffff;fill-opacity:1;stroke:none;stroke-width:0.21905264"
       id="rect5169"
       width="47.417763"
       height="17.887989"
       x="96.913147"
       y="195.22166" />
    <g
       id="g5163"
       transform="matrix(0.12369513,0,0,0.08532429,83.881121,186.7275)"
       style="fill:#ff0000;fill-opacity:1;stroke:none">
      <g
         id="g5105"
         style="fill:#ff0000;fill-opacity:1;stroke:none">
        <g
           id="g5103"
           style="fill:#ff0000;fill-opacity:1;stroke:none">
          <path
             id="path5099"
             d="m 36.547,27.406 c -10.089,0 -18.702,3.576 -25.841,10.706 C 3.571,45.251 0,53.865 0,63.953 c 0,6.661 1.665,12.753 4.998,18.271 3.328,5.52 7.755,9.897 13.273,13.134 v 361.45 c 0,2.666 0.855,4.856 2.57,6.567 1.712,1.714 3.899,2.566 6.567,2.566 h 18.271 c 2.666,0 4.856,-0.853 6.567,-2.566 1.713,-1.711 2.568,-3.901 2.568,-6.567 V 95.358 c 5.52,-3.237 9.945,-7.614 13.275,-13.134 3.332,-5.518 4.996,-11.613 4.996,-18.271 0,-10.085 -3.567,-18.698 -10.701,-25.841 C 55.246,30.979 46.632,27.406 36.547,27.406 Z"
             inkscape:connector-curvature="0"
             style="fill:#ff0000;fill-opacity:1;stroke:none" />
          <path
             id="path5101"
             d="m 484.51,66.521 c -5.903,-3.424 -11.8,-3.612 -17.71,-0.568 -1.707,0.955 -4.661,2.57 -8.846,4.854 -35.782,21.317 -65.281,31.977 -88.504,31.977 -9.709,0 -18.183,-1.809 -25.413,-5.424 -21.313,-10.468 -41.206,-18.654 -59.669,-24.556 -18.463,-5.896 -38.353,-8.848 -59.669,-8.848 -13.894,0 -28.647,1.809 -44.252,5.426 -15.608,3.615 -30.124,8.326 -43.542,14.128 -13.417,5.806 -24.27,10.754 -32.546,14.847 -8.285,4.093 -15.755,8.134 -22.414,12.133 -5.901,3.806 -8.853,9.04 -8.853,15.703 v 211.842 c 0,7.042 3.046,12.374 9.136,15.988 3.045,1.526 6.091,2.282 9.137,2.282 3.424,0 6.567,-0.855 9.419,-2.563 18.081,-11.04 39.825,-20.752 65.235,-29.126 25.413,-8.374 47.826,-12.562 67.24,-12.562 11.035,0 21.89,1.331 32.547,3.997 10.656,2.663 19.321,5.428 25.98,8.278 6.656,2.857 16.077,7.423 28.264,13.706 l 7.994,3.997 c 13.319,6.666 28.356,9.999 45.101,9.999 28.746,0 63.861,-11.04 105.354,-33.119 1.335,-0.76 2.95,-1.615 4.853,-2.57 6.66,-3.426 9.996,-8.847 9.996,-16.272 V 82.224 c 0.005,-6.661 -2.946,-11.893 -8.838,-15.703 z m -27.706,222.702 c -32.928,17.507 -60.812,26.261 -83.651,26.265 -10.848,0 -20.457,-2.095 -28.839,-6.28 l -7.99,-3.996 c -10.472,-5.141 -18.326,-8.898 -23.555,-11.28 -5.232,-2.382 -12.566,-5.331 -21.98,-8.85 -9.425,-3.521 -18.75,-5.995 -27.979,-7.423 -9.229,-1.427 -19.081,-2.139 -29.552,-2.139 -35.786,0 -76.988,10.753 -123.624,32.265 V 136.762 c 43.78,-24.176 82.134,-36.262 115.06,-36.262 17.893,0 34.831,2.618 50.815,7.853 15.985,5.232 33.5,12.515 52.537,21.838 11.984,6.091 25.786,9.137 41.392,9.137 26.076,0 55.199,-8.663 87.367,-25.981 v 175.876 z"
             inkscape:connector-curvature="0"
             style="fill:#ff0000;fill-opacity:1;stroke:none" />
        </g>
      </g>
      <g
         id="g5107"
         style="fill:#ff0000;fill-opacity:1;stroke:none" />
      <g
         id="g5109"
         style="fill:#ff0000;fill-opacity:1;stroke:none" />
      <g
         id="g5111"
         style="fill:#ff0000;fill-opacity:1;stroke:none" />
      <g
         id="g5113"
         style="fill:#ff0000;fill-opacity:1;stroke:none" />
      <g
         id="g5115"
         style="fill:#ff0000;fill-opacity:1;stroke:none" />
      <g
         id="g5117"
         style="fill:#ff0000;fill-opacity:1;stroke:none" />
      <g
         id="g5119"
         style="fill:#ff0000;fill-opacity:1;stroke:none" />
      <g
         id="g5121"
         style="fill:#ff0000;fill-opacity:1;stroke:none" />
      <g
         id="g5123"
         style="fill:#ff0000;fill-opacity:1;stroke:none" />
      <g
         id="g5125"
         style="fill:#ff0000;fill-opacity:1;stroke:none" />
      <g
         id="g5127"
         style="fill:#ff0000;fill-opacity:1;stroke:none" />
      <g
         id="g5129"
         style="fill:#ff0000;fill-opacity:1;stroke:none" />
      <g
         id="g5131"
         style="fill:#ff0000;fill-opacity:1;stroke:none" />
      <g
         id="g5133"
         style="fill:#ff0000;fill-opacity:1;stroke:none" />
      <g
         id="g5135"
         style="fill:#ff0000;fill-opacity:1;stroke:none" />
    </g>
    <text
       xml:space="preserve"
       style="font-style:normal;font-weight:normal;font-size:10.58333302px;line-height:1.25;font-family:sans-serif;letter-spacing:0px;word-spacing:0px;fill:#ff0000;fill-opacity:1;stroke:none;stroke-width:0.26458332;"
       x="99.313202"
       y="207.75105"
       id="text5167"><tspan
         sodipodi:role="line"
         id="tspan5165"
         x="99.313202"
         y="207.75105"
         style="stroke-width:0.26458332;fill:#ff0000;fill-opacity:1;">HELP !</tspan></text>
  </g>
</svg>
