<?xml version="1.0" encoding="utf-8"?>
<svg version="1.2" xmlns="http://www.w3.org/2000/svg" x="0px" y="0px" viewBox="0 0 85 74" >
	
   <!-- define basic shapes -->
   <defs>
   <clipPath id="left-half">
      <rect x="0" y="0" width="30" height="60"/>
   </clipPath>
   <clipPath id="right-half">
      <rect x="30" y="0" width="30" height="60"/>
   </clipPath>
   <clipPath id="top-half">
      <rect x="0" y="30" width="60" height="30"/>
   </clipPath>
   <g>
      <!-- define here the wheel -->
      <circle cx="30" cy="30" r="3" stroke="none" style="fill:black;" clip-path="url(#top-half)" id="wheel"/>  
   </g>
   </defs>
   <defs>
      <!-- define here the box -->
      <rect x="0" y="0" fill-rule="evenodd" fill="none" stroke="#000000" stroke-width="1.5" stroke-linecap="round" stroke-linejoin="round" width="20" height="13" id="box"/>
   </defs>

   <defs>
      <g id="lamp">
		<!-- base of warning light  -->
		<rect x="-3.8" y="7.3" fill-rule="evenodd" fill="#000000" width="7.8" height="1"/>
		
		<!-- light bulb of the light -->
		<!-- can be black or gold -->

      <!-- lamp -->
		<path fill-rule="evenodd" fill="black" d="M0,0L0,0c1.8,0,3.3,1.5,3.3,3.3v3.5h-6.5v-3.5C-3.2,1.4,-1.7,0,0,0z"/>
      <!-- rays -->
		<line fill-rule="evenodd" fill="black" stroke="black" stroke-width="1.5" stroke-linecap="round" x1="0" y1="-2.4" x2="0" y2="-5.3"/>
		<line fill-rule="evenodd" fill="black" stroke="black" stroke-width="1.5" stroke-linecap="round" x1="-3.4" y1="-0.1" x2="-5.7" y2="-2.4"/>
		<line fill-rule="evenodd" fill="black" stroke="black" stroke-width="1.5" stroke-linecap="round" x1="-4.9" y1="3.3" x2="-8.7" y2="3.3"/>
		<line fill-rule="evenodd" fill="black" stroke="black" stroke-width="1.5" stroke-linecap="round" x1="3.5" y1="-0.1" x2="5.8" y2="-2.4"/>
		<line fill-rule="evenodd" fill="black" stroke="black" stroke-width="1.5" stroke-linecap="round" x1="5" y1="3.3" x2="8.1" y2="3.3"/>
      </g>
   </defs>
   <defs>
   <g id="agv_body">
		<!-- AGV body -->
		<rect x="3" y="30" width="42" height="40" fill-rule="evenodd" fill="none" stroke="#000000" stroke-width="1.5" stroke-linecap="round" stroke-linejoin="round" />
		<text x="20" y="40" font-size="10"> AGV </text>
		<!-- Warning lines AGV -->
		<path fill-rule="evenodd" fill="#000000" d="M3.7,59.7h4.4l5.2,7.1H8.9L3.7,59.7L3.7,59.7z M33.7,59.7H38l5.2,7.1h-4.4L33.7,59.7
		L33.7,59.7z M26.2,59.7l5.2,7.1h4.4l-5.2-7.1H26.2L26.2,59.7z M18.7,59.7h4.4l5.2,7.1h-4.4L18.7,59.7L18.7,59.7z M11.2,59.7
		l5.2,7.1h4.4l-5.2-7.1H11.2z"/>
   </g>
   </defs>
	
   <!-- draw the AGV and parcels -->
	<g>
      <g transform="translate(20 20.5) scale(1.0) ">
			<use href="#lamp" />
		</g>
      <g transform="translate(0 0) scale(1.0) ">
         <use href="#agv_body"/>
      </g>
	
	
		<!-- fork of the AGV forklift -->
		<polyline fill-rule="evenodd" fill="none" stroke="#000000" stroke-width="2" stroke-linecap="round" stroke-linejoin="round" points="
		51,10 51,59 83.3,59 	"/>
      <!-- top box -->
		<g transform="translate(55 19) scale(0.6) ">
			<use href="#box" />
		</g>
		<!-- middle box -->
		<g transform="translate(55 28) scale(0.8) ">
			<use href="#box" />
		</g>
		<!-- bottom box -->
		<g transform="translate(55 40) scale(1.3) ">
			<use href="#box" />
		</g>
	
		<!-- the wheels -->
		<use href="#wheel" x="-25" y="41"/>
		<use href="#wheel" x="-15" y="41"/>
		<use href="#wheel" x="2" y="41"/>
		<use href="#wheel" x="12" y="41"/>
		
	</g>
</svg>
